<svg width="634" height="579" viewBox="0 0 634 579" fill="none" xmlns="http://www.w3.org/2000/svg">
<g clip-path="url(#clip0_550_326)">
<path d="M476.363 434.785L566.896 553.763H489.797L387.454 406.132C382.784 399.394 375.106 395.375 366.908 395.375H126.258C112.451 395.375 101.258 406.568 101.258 420.375V553.763H25.6709V116.917H451.892C477.803 116.917 497.836 119.625 513.07 123.88C527.324 128.55 538.933 135.315 549.529 144.902C559.557 155.342 566.245 166.446 570.171 178.963C574.446 192.589 577.296 211.788 577.296 237.9V274.396C577.296 319.221 569.157 347.584 557.532 362.972C546.204 377.961 526.12 389.711 492.423 394.942C483.717 396.293 476.365 402.128 473.071 410.299C469.777 418.471 471.028 427.773 476.363 434.785ZM431.588 338.083C431.819 338.083 432.049 338.08 432.279 338.074C441.551 338.046 450.443 337.448 458.4 335.853C466.207 334.289 475.471 331.318 483.11 324.833C497.141 312.92 501.708 294.603 501.708 276.583V235.708C501.708 218.156 497.011 199.992 483.117 188.191C483.115 188.188 483.112 188.186 483.11 188.184C475.898 182.059 467.11 178.799 459.114 176.952C450.829 175.037 441.51 174.213 431.588 174.213H126.258C112.451 174.213 101.258 185.405 101.258 199.213V313.083C101.258 326.891 112.451 338.083 126.258 338.083H431.588Z" fill="black" stroke="black" stroke-width="50" stroke-linecap="round" stroke-linejoin="round"/>
<path d="M592.038 83.575C615.038 83.575 633.696 64.9209 633.696 41.9084C633.696 18.8959 615.038 0.241699 592.038 0.241699C569.021 0.241699 550.363 18.8959 550.363 41.9084C550.363 64.9209 569.021 83.575 592.038 83.575Z" fill="black"/>
</g>
<defs>
<clipPath id="clip0_550_326">
<rect width="634" height="579" fill="white"/>
</clipPath>
</defs>
</svg>
